<mxfile host="app.diagrams.net" agent="Mozilla/5.0 (Windows NT 10.0; Win64; x64) AppleWebKit/537.36 (KHTML, like Gecko) Chrome/128.0.0.0 Safari/537.36" version="24.7.8">
  <diagram name="Page-1" id="Le0nVTz0XZN3LCOcEph0">
    <mxGraphModel dx="1731" dy="1097" grid="1" gridSize="10" guides="1" tooltips="1" connect="1" arrows="1" fold="1" page="1" pageScale="1" pageWidth="850" pageHeight="1100" math="0" shadow="0">
      <root>
        <mxCell id="0" />
        <mxCell id="1" parent="0" />
        <UserObject label="&lt;div style=&quot;font-size: 16px;&quot;&gt;&lt;p style=&quot;text-align:left;margin-left:0;margin-right:0;margin-top:0px;margin-bottom:0px;text-indent:0;vertical-align:middle;direction:ltr;&quot;&gt;&lt;font style=&quot;font-size: 16px; font-family: Calibri; color: rgb(0, 0, 0); direction: ltr; letter-spacing: 0px; line-height: 120%; opacity: 1;&quot;&gt;template &amp;lt;class T1, class T2&amp;gt; &lt;br&gt;&lt;/font&gt;&lt;/p&gt;&lt;p style=&quot;text-align:left;margin-left:0;margin-right:0;margin-top:0px;margin-bottom:0px;text-indent:0;vertical-align:middle;direction:ltr;&quot;&gt;&lt;font style=&quot;font-size: 16px; font-family: Calibri; color: rgb(0, 0, 0); direction: ltr; letter-spacing: 0px; line-height: 120%; opacity: 1;&quot;&gt;inline pair&amp;lt; typename decay&amp;lt;T1&amp;gt;::type, typename decay&amp;lt;T2&amp;gt;::type &amp;gt; &lt;br&gt;&lt;/font&gt;&lt;/p&gt;&lt;p style=&quot;text-align:left;margin-left:0;margin-right:0;margin-top:0px;margin-bottom:0px;text-indent:0;vertical-align:middle;direction:ltr;&quot;&gt;&lt;font style=&quot;font-size: 16px; font-family: Calibri; color: rgb(0, 0, 0); direction: ltr; letter-spacing: 0px; line-height: 120%; opacity: 1;&quot;&gt;&lt;b&gt;make_pair&lt;/b&gt;&lt;/font&gt;&lt;font style=&quot;font-size: 16px; font-family: Calibri; color: rgb(0, 0, 0); direction: ltr; letter-spacing: 0px; line-height: 120%; opacity: 1;&quot;&gt;(T1&amp;amp;&amp;amp; x, T2&amp;amp;&amp;amp; y){&lt;/font&gt;&lt;/p&gt;&lt;p style=&quot;text-align:left;margin-left:0;margin-right:0;margin-top:0px;margin-bottom:0px;text-indent:0;vertical-align:middle;direction:ltr;&quot;&gt;&lt;span style=&quot;font-family: Calibri; letter-spacing: 0px; background-color: initial;&quot;&gt;&amp;nbsp; &amp;nbsp; return pair&amp;lt; typename decay&amp;lt;T1&amp;gt;::type,&amp;nbsp;&lt;/span&gt;&lt;span style=&quot;font-family: Calibri; letter-spacing: 0px; background-color: initial;&quot;&gt;typename&amp;nbsp; &lt;/span&gt;&lt;span style=&quot;background-color: initial; font-family: Calibri; letter-spacing: 0px;&quot;&gt;decay&amp;lt;T2&amp;gt;::type &amp;gt;&amp;nbsp; &amp;nbsp; &amp;nbsp; &amp;nbsp; &amp;nbsp; &amp;nbsp; &amp;nbsp; &amp;nbsp; &amp;nbsp; &amp;nbsp; &amp;nbsp; &amp;nbsp; &amp;nbsp; &amp;nbsp; &amp;nbsp; &amp;nbsp; &amp;nbsp; &amp;nbsp; &amp;nbsp; &amp;nbsp; &amp;nbsp; &amp;nbsp;(std::forward&amp;lt;T1&amp;gt;(x),&amp;nbsp;&lt;/span&gt;&lt;span style=&quot;font-family: Calibri; letter-spacing: 0px; background-color: initial;&quot;&gt;std::forward&amp;lt;T2&amp;gt;(y) );&lt;/span&gt;&lt;/p&gt;&lt;p style=&quot;text-align:left;margin-left:0;margin-right:0;margin-top:0px;margin-bottom:0px;text-indent:0;vertical-align:middle;direction:ltr;&quot;&gt;&lt;font style=&quot;font-size: 16px; font-family: Calibri; color: rgb(0, 0, 0); direction: ltr; letter-spacing: 0px; line-height: 120%; opacity: 1;&quot;&gt;}&lt;br&gt;&lt;/font&gt;&lt;/p&gt;&lt;/div&gt;" tags="Background" id="KkYNQrah5GLoVrPr49fw-1">
          <mxCell style="verticalAlign=middle;align=left;overflow=width;vsdxID=1;fillColor=#ffffff;gradientColor=none;fillOpacity=50;shape=stencil(nZBLDoAgDERP0z3SIyjew0SURgSD+Lu9kMZoXLhwN9O+tukAlrNpJg1SzDH4QW/URgNYgZTkjA4UkwJUgGXng+6DX1zLfmoymdXo17xh5zmRJ6Q42BWCfc2oJfdAr+Yv+AP9Cb7OJ3H/2JG1HNGz/84klThPVCc=);strokeColor=#000000;strokeWidth=2;points=[[0.5,0,0],[0.5,1,0],[0,0.5,0],[0.5,0.5,0],[1,0.5,0]];labelBackgroundColor=none;rounded=0;html=1;whiteSpace=wrap;" vertex="1" parent="1">
            <mxGeometry x="460" y="125" width="492" height="129" as="geometry" />
          </mxCell>
        </UserObject>
        <UserObject label="&lt;div style=&quot;font-size: 16px;&quot;&gt;&lt;p style=&quot;text-align:left;margin-left:0;margin-right:0;margin-top:0px;margin-bottom:0px;text-indent:0;vertical-align:middle;direction:ltr;&quot;&gt;&lt;font style=&quot;font-size: 16px; font-family: Calibri; color: rgb(0, 0, 0); direction: ltr; letter-spacing: 0px; line-height: 120%; opacity: 1;&quot;&gt;template&lt;/font&gt;&lt;font style=&quot;font-size: 16px; font-family: Calibri; color: rgb(0, 0, 0); direction: ltr; letter-spacing: 0px; line-height: 120%; opacity: 1;&quot;&gt; &amp;lt;&lt;/font&gt;&lt;font style=&quot;font-size: 16px; font-family: Calibri; color: rgb(0, 0, 0); direction: ltr; letter-spacing: 0px; line-height: 120%; opacity: 1;&quot;&gt;class&lt;/font&gt;&lt;font style=&quot;font-size: 16px; font-family: Calibri; color: rgb(0, 0, 0); direction: ltr; letter-spacing: 0px; line-height: 120%; opacity: 1;&quot;&gt; &lt;/font&gt;&lt;font style=&quot;font-size: 16px; font-family: Calibri; color: rgb(0, 0, 0); direction: ltr; letter-spacing: 0px; line-height: 120%; opacity: 1;&quot;&gt;Function&lt;/font&gt;&lt;font style=&quot;font-size: 16px; font-family: Calibri; color: rgb(0, 0, 0); direction: ltr; letter-spacing: 0px; line-height: 120%; opacity: 1;&quot;&gt;, &lt;/font&gt;&lt;font style=&quot;font-size: 16px; font-family: Calibri; color: rgb(0, 0, 0); direction: ltr; letter-spacing: 0px; line-height: 120%; opacity: 1;&quot;&gt;class&lt;/font&gt;&lt;font style=&quot;font-size: 16px; font-family: Calibri; color: rgb(0, 0, 0); direction: ltr; letter-spacing: 0px; line-height: 120%; opacity: 1;&quot;&gt; &lt;/font&gt;&lt;font style=&quot;font-size: 16px; font-family: Calibri; color: rgb(0, 0, 0); direction: ltr; letter-spacing: 0px; line-height: 120%; opacity: 1;&quot;&gt;Arg&lt;/font&gt;&lt;font style=&quot;font-size: 16px; font-family: Calibri; color: rgb(0, 0, 0); direction: ltr; letter-spacing: 0px; line-height: 120%; opacity: 1;&quot;&gt;&amp;gt;&lt;br&gt;&lt;/font&gt;&lt;/p&gt;&lt;p style=&quot;text-align:left;margin-left:0;margin-right:0;margin-top:0px;margin-bottom:0px;text-indent:0;vertical-align:middle;direction:ltr;&quot;&gt;&lt;font style=&quot;font-size: 16px; font-family: Calibri; color: rgb(0, 0, 0); direction: ltr; letter-spacing: 0px; line-height: 120%; opacity: 1;&quot;&gt;    &lt;/font&gt;&lt;font style=&quot;font-size: 16px; font-family: Calibri; color: rgb(0, 0, 0); direction: ltr; letter-spacing: 0px; line-height: 120%; opacity: 1;&quot;&gt;&lt;b&gt;thread&lt;/b&gt;&lt;/font&gt;&lt;font style=&quot;font-size: 16px; font-family: Calibri; color: rgb(0, 0, 0); direction: ltr; letter-spacing: 0px; line-height: 120%; opacity: 1;&quot;&gt;(Function&amp;amp;&amp;amp; f, Arg&amp;amp;&amp;amp; arg) {&lt;br&gt;&lt;/font&gt;&lt;/p&gt;&lt;p style=&quot;text-align:left;margin-left:0;margin-right:0;margin-top:0px;margin-bottom:0px;text-indent:0;vertical-align:middle;direction:ltr;&quot;&gt;&lt;font style=&quot;font-size: 16px; font-family: Calibri; color: rgb(0, 0, 0); direction: ltr; letter-spacing: 0px; line-height: 120%; opacity: 1;&quot;&gt;&amp;nbsp; &amp;nbsp; // something happening&lt;br&gt;&lt;/font&gt;&lt;/p&gt;&lt;p style=&quot;text-align:left;margin-left:0;margin-right:0;margin-top:0px;margin-bottom:0px;text-indent:0;vertical-align:middle;direction:ltr;&quot;&gt;&lt;font style=&quot;font-size: 16px; font-family: Calibri; color: rgb(0, 0, 0); direction: ltr; letter-spacing: 0px; line-height: 120%; opacity: 1;&quot;&gt;&amp;nbsp; &amp;nbsp; std::&lt;/font&gt;&lt;font style=&quot;font-size: 16px; font-family: Calibri; color: rgb(0, 0, 0); direction: ltr; letter-spacing: 0px; line-height: 120%; opacity: 1;&quot;&gt;invoke&lt;/font&gt;&lt;font style=&quot;font-size: 16px; font-family: Calibri; color: rgb(0, 0, 0); direction: ltr; letter-spacing: 0px; line-height: 120%; opacity: 1;&quot;&gt;(&lt;/font&gt;&lt;font style=&quot;font-size: 16px; font-family: Calibri; color: rgb(0, 0, 0); direction: ltr; letter-spacing: 0px; line-height: 120%; opacity: 1;&quot;&gt;decay_copy&lt;/font&gt;&lt;font style=&quot;font-size: 16px; font-family: Calibri; color: rgb(0, 0, 0); direction: ltr; letter-spacing: 0px; line-height: 120%; opacity: 1;&quot;&gt;(std::forward&amp;lt;Function&amp;gt;(f)),&lt;br&gt;&lt;/font&gt;&lt;/p&gt;&lt;p style=&quot;text-align:left;margin-left:0;margin-right:0;margin-top:0px;margin-bottom:0px;text-indent:0;vertical-align:middle;direction:ltr;&quot;&gt;&lt;font style=&quot;font-size: 16px; font-family: Calibri; color: rgb(0, 0, 0); direction: ltr; letter-spacing: 0px; line-height: 120%; opacity: 1;&quot;&gt;&amp;nbsp; &amp;nbsp; &amp;nbsp;decay_copy&lt;/font&gt;&lt;font style=&quot;font-size: 16px; font-family: Calibri; color: rgb(0, 0, 0); direction: ltr; letter-spacing: 0px; line-height: 120%; opacity: 1;&quot;&gt;(std::forward&amp;lt;Arg&amp;gt;(arg)));&lt;br&gt;&lt;/font&gt;&lt;/p&gt;&lt;p style=&quot;text-align:left;margin-left:0;margin-right:0;margin-top:0px;margin-bottom:0px;text-indent:0;vertical-align:middle;direction:ltr;&quot;&gt;&lt;font style=&quot;font-size: 16px; font-family: Calibri; color: rgb(0, 0, 0); direction: ltr; letter-spacing: 0px; line-height: 120%; opacity: 1;&quot;&gt;&amp;nbsp; &amp;nbsp; // something else happening&lt;br&gt;&lt;/font&gt;&lt;/p&gt;&lt;p style=&quot;text-align:left;margin-left:0;margin-right:0;margin-top:0px;margin-bottom:0px;text-indent:0;vertical-align:middle;direction:ltr;&quot;&gt;&lt;font style=&quot;font-size: 16px; font-family: Calibri; color: rgb(0, 0, 0); direction: ltr; letter-spacing: 0px; line-height: 120%; opacity: 1;&quot;&gt;    }&lt;br&gt;&lt;br&gt;&lt;/font&gt;&lt;/p&gt;&lt;/div&gt;" tags="Background" id="KkYNQrah5GLoVrPr49fw-2">
          <mxCell style="verticalAlign=middle;align=left;overflow=width;vsdxID=3;fillColor=#ffffff;gradientColor=none;fillOpacity=50;shape=stencil(nZBLDoAgDERP0z3SIyjew0SURgSD+Lu9kMZoXLhwN9O+tukAlrNpJg1SzDH4QW/URgNYgZTkjA4UkwJUgGXng+6DX1zLfmoymdXo17xh5zmRJ6Q42BWCfc2oJfdAr+Yv+AP9Cb7OJ3H/2JG1HNGz/84klThPVCc=);strokeColor=#000000;strokeWidth=2;points=[[0.5,0,0],[0.5,1,0],[0,0.5,0],[0.5,0.5,0],[1,0.5,0]];labelBackgroundColor=none;rounded=0;html=1;whiteSpace=wrap;" vertex="1" parent="1">
            <mxGeometry x="468" y="388" width="416" height="146" as="geometry" />
          </mxCell>
        </UserObject>
        <UserObject label="&lt;div style=&quot;&quot;&gt;&lt;font style=&quot;font-family: Calibri; color: rgb(0, 0, 0); direction: ltr; letter-spacing: 0px; line-height: 120%; opacity: 1;&quot;&gt;&lt;font style=&quot;font-size: 16px;&quot;&gt;common lvalue&lt;/font&gt;&lt;br&gt;&lt;/font&gt;&lt;/div&gt;" tags="Background" id="KkYNQrah5GLoVrPr49fw-3">
          <mxCell style="verticalAlign=middle;align=center;overflow=width;vsdxID=13;fillColor=none;gradientColor=none;shape=stencil(vVHLDsIgEPwajiQU4hfU+h8bu7RELM2CFv9eyMZYjCcP3mZ2Zh/ZEaaPM6wotIqJwgU3N6ZZmKPQ2i0zkksFCTMI09tAOFG4LSPzFaqzomu41wmZ+1Tt0OrB7MD0xE6gc5EoN5qi1vsa1Kmvo1SWkF2UFBIkF5ZmqweaUJY10nqYGiluiOuu3P182P/OKuD9Zuu855T2+mcspcSRmuEJ);strokeColor=#4672c4;points=[[0.5,0,0],[0.5,0.5,0],[0,0.5,0],[0.5,1,0],[1,0.5,0]];labelBackgroundColor=none;rounded=0;html=1;whiteSpace=wrap;" vertex="1" parent="1">
            <mxGeometry x="1009" y="179" width="73" height="59" as="geometry" />
          </mxCell>
        </UserObject>
        <UserObject label="&lt;div style=&quot;&quot;&gt;&lt;font style=&quot;font-family: Calibri; color: rgb(0, 0, 0); direction: ltr; letter-spacing: 0px; line-height: 120%; opacity: 1;&quot;&gt;&lt;font style=&quot;font-size: 16px;&quot;&gt;rvalue&lt;/font&gt;&lt;br&gt;&lt;/font&gt;&lt;/div&gt;" tags="Background" id="KkYNQrah5GLoVrPr49fw-4">
          <mxCell style="verticalAlign=middle;align=center;overflow=width;vsdxID=14;fillColor=none;gradientColor=none;shape=stencil(rVFbDsIgEDwNnyQU4glqvcfGblsilmZBS28vZGMsxg9j/JvZmX1kR5g2TLCg0CpE8hdcbR8nYY5CaztPSDZmJEwnTDt4wpH8be6ZL1CcBV39vUxI3KdKh1YbswPTEzuBzlmiVGmKau9zUKM+jlJJQrJBko8QrZ+rrQ5oRJnXyMHBWElhRVx25ebnw/5zVvPFWRm83jxY5zilvf4eSy5xpKZ7AA==);strokeColor=#4672c4;points=[[0.5,0,0],[0.5,0.5,0],[0,0.5,0],[0.5,1,0],[1,0.5,0]];labelBackgroundColor=none;rounded=0;html=1;whiteSpace=wrap;" vertex="1" parent="1">
            <mxGeometry x="1009" y="268" width="73" height="62" as="geometry" />
          </mxCell>
        </UserObject>
        <UserObject label="&lt;div style=&quot;&quot;&gt;&lt;font style=&quot;font-family: Calibri; color: rgb(0, 0, 0); direction: ltr; letter-spacing: 0px; line-height: 120%; opacity: 1;&quot;&gt;&lt;font style=&quot;font-size: 16px;&quot;&gt;char []&lt;/font&gt;&lt;br&gt;&lt;/font&gt;&lt;/div&gt;" tags="Background" id="KkYNQrah5GLoVrPr49fw-5">
          <mxCell style="verticalAlign=middle;align=center;overflow=width;vsdxID=15;fillColor=none;gradientColor=none;shape=stencil(rVFbDsIgEDwNnyQU4glqvcfGblsilmZBS28vZGMsxg9j/JvZmX1kR5g2TLCg0CpE8hdcbR8nYY5CaztPSDZmJEwnTDt4wpH8be6ZL1CcBV39vUxI3KdKh1YbswPTEzuBzlmiVGmKau9zUKM+jlJJQrJBko8QrZ+rrQ5oRJnXyMHBWElhRVx25ebnw/5zVvPFWRm83jxY5zilvf4eSy5xpKZ7AA==);strokeColor=#4672c4;points=[[0.5,0,0],[0.5,0.5,0],[0,0.5,0],[0.5,1,0],[1,0.5,0]];labelBackgroundColor=none;rounded=0;html=1;whiteSpace=wrap;" vertex="1" parent="1">
            <mxGeometry x="1009" y="361" width="73" height="62" as="geometry" />
          </mxCell>
        </UserObject>
        <UserObject label="&lt;div style=&quot;&quot;&gt;&lt;font style=&quot;font-family: Calibri; color: rgb(0, 0, 0); direction: ltr; letter-spacing: 0px; line-height: 120%; opacity: 1;&quot;&gt;&lt;font style=&quot;font-size: 16px;&quot;&gt;T&amp;amp;&amp;nbsp;&lt;/font&gt;&lt;br&gt;&lt;/font&gt;&lt;/div&gt;" tags="Background" id="KkYNQrah5GLoVrPr49fw-6">
          <mxCell style="verticalAlign=middle;align=center;overflow=width;vsdxID=16;fillColor=none;gradientColor=none;shape=stencil(rVFbDsIgEDwNnyQU4glqvcfGblsilmZBS28vZGMsxg9j/JvZmX1kR5g2TLCg0CpE8hdcbR8nYY5CaztPSDZmJEwnTDt4wpH8be6ZL1CcBV39vUxI3KdKh1YbswPTEzuBzlmiVGmKau9zUKM+jlJJQrJBko8QrZ+rrQ5oRJnXyMHBWElhRVx25ebnw/5zVvPFWRm83jxY5zilvf4eSy5xpKZ7AA==);strokeColor=#4672c4;points=[[0.5,0,0],[0.5,0.5,0],[0,0.5,0],[0.5,1,0],[1,0.5,0]];labelBackgroundColor=none;rounded=0;html=1;whiteSpace=wrap;" vertex="1" parent="1">
            <mxGeometry x="1009" y="444" width="73" height="62" as="geometry" />
          </mxCell>
        </UserObject>
        <UserObject label="" tags="Background" id="KkYNQrah5GLoVrPr49fw-22">
          <mxCell style="vsdxID=59;fillColor=none;gradientColor=none;strokeColor=none;spacingTop=4;spacingBottom=4;spacingLeft=4;spacingRight=4;points=[[0.28,0.4,0],[1,0.4,0],[0.5,0,0]];labelBackgroundColor=none;rounded=0;html=1;whiteSpace=wrap;" vertex="1" parent="1">
            <mxGeometry x="449" y="290" width="435" height="109" as="geometry" />
          </mxCell>
        </UserObject>
        <mxCell id="KkYNQrah5GLoVrPr49fw-23" style="vsdxID=60;fillColor=#ffffff;gradientColor=none;shape=stencil(rVJBDsIgEHwNRxoKtQnnqv8glrZEhGZBW38vhKpFo/HgbXZndnfCgFjjBjFKRInzYI9yUq0fENsiSpUZJCgfEGI7xJrOguzBnk2b6lFEZUQne4kb5jRH4gQl13W1T0IBh8DAIiwZL2id1LDIy6oqeJl6dxnJNz7qGYtZOQzWC6+sya5rAb3E4R7utOgzyk1Sjm/tzw6r3CGviw3/avC/9sq1Pa3Mby8dwDOfTmmd4l3zr3mGVvoLbHcD);strokeColor=#939393;points=[[0.28,1,0],[0,0.4,0],[1,0.4,0],[0.5,0,0]];labelBackgroundColor=none;rounded=0;html=1;whiteSpace=wrap;" vertex="1" parent="KkYNQrah5GLoVrPr49fw-22">
          <mxGeometry x="90" y="77" width="31" height="32" as="geometry" />
        </mxCell>
        <mxCell id="KkYNQrah5GLoVrPr49fw-24" value="&lt;div style=&quot;font-size: 1px&quot;&gt;&lt;p style=&quot;text-align:center;margin-left:0;margin-right:0;margin-top:0px;margin-bottom:0px;text-indent:0;vertical-align:middle;direction:ltr;&quot;&gt;&lt;/p&gt;&lt;/div&gt;" style="verticalAlign=middle;align=center;overflow=width;vsdxID=61;fillColor=#ffffff;gradientColor=none;shape=stencil(xVTBcsIgEP0ajmEIhFjOVv+DUZIw0pDZoMa/LykZFdLEnuxt2ff27ewDFrFt38hOIUp6B/akrvroGsQ+EaW6bRRo5yPEdohtKwuqBntuj+HcyZE5Rl/2MioMoa7AdKyh5BbOQmCR/2T2gW50+0QXHH+s8yUcPAp3eT7xYSqgHItNSA0PCRGJbhjm+cTJ5KD7DKyTTts24CRgRkKtMt8wq4ysI6i/KtXN0r+PtNJ+sSA2gZa4EGsmFHxmAuWxCamxBBPxLgvSR3DvvXSns2k4i6bxAvmCQ28YZ6X73/izB5AaULLEgRJTETmw/K/+4T5ffOqUnpNI2weP7VFpY8LyecbTbeNTYVOx3Tc=);strokeColor=#939393;spacingTop=-3;spacingBottom=-3;spacingLeft=8;spacingRight=8;points=[[0.28,1,0],[0,0.4,0],[1,0.4,0],[0.5,0,0]];labelBackgroundColor=none;rounded=0;html=1;whiteSpace=wrap;" vertex="1" parent="KkYNQrah5GLoVrPr49fw-22">
          <mxGeometry width="435" height="76" as="geometry" />
        </mxCell>
        <mxCell id="KkYNQrah5GLoVrPr49fw-25" value="&lt;div style=&quot;font-size: 1px&quot;&gt;&lt;p style=&quot;text-align:center;margin-left:0;margin-right:0;margin-top:0px;margin-bottom:0px;text-indent:0;vertical-align:middle;direction:ltr;&quot;&gt;&lt;font style=&quot;font-size:16.93px;font-family:Calibri;color:#000000;direction:ltr;letter-spacing:0px;line-height:120%;opacity:1&quot;&gt;1) both make_pair and thead use forward reference.&lt;br/&gt;&lt;/font&gt;&lt;/p&gt;&lt;p style=&quot;text-align:center;margin-left:0;margin-right:0;margin-top:0px;margin-bottom:0px;text-indent:0;vertical-align:middle;direction:ltr;&quot;&gt;&lt;font style=&quot;font-size:16.93px;font-family:Calibri;color:#000000;direction:ltr;letter-spacing:0px;line-height:120%;opacity:1&quot;&gt;2) &lt;/font&gt;&lt;font style=&quot;font-size:16.93px;font-family:Calibri;color:#000000;direction:ltr;letter-spacing:0px;line-height:120%;opacity:1&quot;&gt;&lt;b&gt;They both copy inside&lt;/b&gt;&lt;/font&gt;&lt;font style=&quot;font-size:16.93px;font-family:Calibri;color:#000000;direction:ltr;letter-spacing:0px;line-height:120%;opacity:1&quot;&gt;. make_pair copy inside pair ctor, thread copy inside decay_copy funciton.&lt;br/&gt;&lt;br/&gt;&lt;/font&gt;&lt;/p&gt;&lt;/div&gt;" style="text;vsdxID=59;fillColor=none;gradientColor=none;strokeColor=none;spacingTop=4;spacingBottom=4;spacingLeft=4;spacingRight=4;points=[[0.28,0.4,0],[1,0.4,0],[0.5,0,0]];labelBackgroundColor=none;rounded=0;html=1;whiteSpace=wrap;verticalAlign=middle;align=center;overflow=width;;html=1;" vertex="1" parent="KkYNQrah5GLoVrPr49fw-22">
          <mxGeometry y="-1.25" width="435.33" height="89.19" as="geometry" />
        </mxCell>
        <UserObject label="&lt;div style=&quot;font-size: 1px&quot;&gt;&lt;p style=&quot;text-align:left;margin-left:0;margin-right:0;margin-top:0px;margin-bottom:0px;text-indent:0;vertical-align:middle;direction:ltr;&quot;&gt;&lt;font style=&quot;font-size:16.93px;font-family:Calibri;color:#000000;direction:ltr;letter-spacing:0px;line-height:120%;opacity:1&quot;&gt;forward&amp;lt;T1&amp;gt;::(x)&lt;br/&gt;&lt;/font&gt;&lt;/p&gt;&lt;p style=&quot;text-align:left;margin-left:0;margin-right:0;margin-top:0px;margin-bottom:0px;text-indent:0;vertical-align:middle;direction:ltr;&quot;&gt;&lt;font style=&quot;font-size:16.93px;font-family:Calibri;color:#000000;direction:ltr;letter-spacing:0px;line-height:120%;opacity:1&quot;&gt;//&lt;/font&gt;&lt;font style=&quot;font-size:16.93px;font-family:Calibri;color:#000000;direction:ltr;letter-spacing:0px;line-height:120%;opacity:1&quot;&gt;&lt;b&gt;The first step&lt;/b&gt;&lt;/font&gt;&lt;font style=&quot;font-size:16.93px;font-family:Calibri;color:#000000;direction:ltr;letter-spacing:0px;line-height:120%;opacity:1&quot;&gt;, forward to catch all kinds of parameter&lt;br/&gt;&lt;/font&gt;&lt;/p&gt;&lt;p style=&quot;text-align:left;margin-left:0;margin-right:0;margin-top:0px;margin-bottom:0px;text-indent:0;vertical-align:middle;direction:ltr;&quot;&gt;&lt;font style=&quot;font-size:16.93px;font-family:Calibri;color:#000000;direction:ltr;letter-spacing:0px;line-height:120%;opacity:1&quot;&gt;//For char[], deduce char(&amp;amp;)[]&lt;br/&gt;&lt;/font&gt;&lt;/p&gt;&lt;p style=&quot;text-align:left;margin-left:0;margin-right:0;margin-top:0px;margin-bottom:0px;text-indent:0;vertical-align:middle;direction:ltr;&quot;&gt;&lt;font style=&quot;font-size:16.93px;font-family:Calibri;color:#000000;direction:ltr;letter-spacing:0px;line-height:120%;opacity:1&quot;&gt;//for wrapper_reference,deduce the wrapper_reference&lt;br/&gt;&lt;/font&gt;&lt;/p&gt;&lt;/div&gt;" tags="Background" id="KkYNQrah5GLoVrPr49fw-27">
          <mxCell style="verticalAlign=middle;align=left;overflow=width;vsdxID=65;fillColor=none;gradientColor=none;shape=stencil(nZBLDoAgDERP0z3SIyjew0SURgSD+Lu9kMZoXLhwN9O+tukAlrNpJg1SzDH4QW/URgNYgZTkjA4UkwJUgGXng+6DX1zLfmoymdXo17xh5zmRJ6Q42BWCfc2oJfdAr+Yv+AP9Cb7OJ3H/2JG1HNGz/84klThPVCc=);strokeColor=#000000;points=[[0.5,0,0],[0.5,1,0],[0,0.5,0],[0.5,0.5,0],[1,0.5,0]];labelBackgroundColor=none;rounded=0;html=1;whiteSpace=wrap;" vertex="1" parent="1">
            <mxGeometry x="31" y="165.5" width="416" height="101" as="geometry" />
          </mxCell>
        </UserObject>
        <UserObject label="&lt;div style=&quot;font-size: 1px&quot;&gt;&lt;p style=&quot;text-align:left;margin-left:0;margin-right:0;margin-top:0px;margin-bottom:0px;text-indent:0;vertical-align:middle;direction:ltr;&quot;&gt;&lt;font style=&quot;font-size:16.93px;font-family:Calibri;color:#000000;direction:ltr;letter-spacing:0px;line-height:120%;opacity:1&quot;&gt;pair&amp;lt;decay&amp;lt;T1&amp;gt;..&amp;gt;pair( ...)&lt;br/&gt;&lt;/font&gt;&lt;/p&gt;&lt;p style=&quot;text-align:left;margin-left:0;margin-right:0;margin-top:0px;margin-bottom:0px;text-indent:0;vertical-align:middle;direction:ltr;&quot;&gt;&lt;font style=&quot;font-size:16.93px;font-family:Calibri;color:#000000;direction:ltr;letter-spacing:0px;line-height:120%;opacity:1&quot;&gt;//&lt;/font&gt;&lt;font style=&quot;font-size:16.93px;font-family:Calibri;color:#000000;direction:ltr;letter-spacing:0px;line-height:120%;opacity:1&quot;&gt;&lt;b&gt;The second step,&lt;/b&gt;&lt;/font&gt;&lt;font style=&quot;font-size:16.93px;font-family:Calibri;color:#000000;direction:ltr;letter-spacing:0px;line-height:120%;opacity:1&quot;&gt; invoke pair constructor&lt;br/&gt;&lt;/font&gt;&lt;/p&gt;&lt;p style=&quot;text-align:left;margin-left:0;margin-right:0;margin-top:0px;margin-bottom:0px;text-indent:0;vertical-align:middle;direction:ltr;&quot;&gt;&lt;font style=&quot;font-size:16.93px;font-family:Calibri;color:#000000;direction:ltr;letter-spacing:0px;line-height:120%;opacity:1&quot;&gt;//pair constructor&lt;br/&gt;&lt;/font&gt;&lt;/p&gt;&lt;p style=&quot;text-align:left;margin-left:0;margin-right:0;margin-top:0px;margin-bottom:0px;text-indent:0;vertical-align:middle;direction:ltr;&quot;&gt;&lt;font style=&quot;font-size:16.93px;font-family:Calibri;color:#000000;direction:ltr;letter-spacing:0px;line-height:120%;opacity:1&quot;&gt;//we specify type here&lt;br/&gt;&lt;/font&gt;&lt;/p&gt;&lt;/div&gt;" tags="Background" id="KkYNQrah5GLoVrPr49fw-28">
          <mxCell style="verticalAlign=middle;align=left;overflow=width;vsdxID=66;fillColor=none;gradientColor=none;shape=stencil(nZBLDoAgDERP0z3SIyjew0SURgSD+Lu9kMZoXLhwN9O+tukAlrNpJg1SzDH4QW/URgNYgZTkjA4UkwJUgGXng+6DX1zLfmoymdXo17xh5zmRJ6Q42BWCfc2oJfdAr+Yv+AP9Cb7OJ3H/2JG1HNGz/84klThPVCc=);strokeColor=#000000;points=[[0.5,0,0],[0.5,1,0],[0,0.5,0],[0.5,0.5,0],[1,0.5,0]];labelBackgroundColor=none;rounded=0;html=1;whiteSpace=wrap;" vertex="1" parent="1">
            <mxGeometry x="60" y="311" width="359" height="90" as="geometry" />
          </mxCell>
        </UserObject>
        <UserObject label="" tags="Background" id="KkYNQrah5GLoVrPr49fw-29">
          <mxCell style="vsdxID=67;rotation=90;fillColor=none;gradientColor=none;shape=stencil(zZLNDoMgEISfhmMNsIrxbO17mIiFlIJB7M/bF7Jpaj3Y2Et7m4H5SHYZAvWo2kESTsfg3UledRcUgT3hXFslvQ5REWgI1L3z8ujdZDv0Q5uSSZ3dJb1wQ44mgtM7OkbRHzBqtJ1Fc5YV7C2+Y0XFMyE2MWUuMoBfI89JvwZWV7UMV5sH+E+ClR/+e3VHUbxq2GtjsMXz+2Vt4xFWHpoH);strokeColor=#233862;flipH=1;flipV=1;points=[];labelBackgroundColor=none;rounded=0;html=1;whiteSpace=wrap;" vertex="1" parent="1">
            <mxGeometry x="214" y="146" width="40" height="1" as="geometry" />
          </mxCell>
        </UserObject>
        <mxCell id="KkYNQrah5GLoVrPr49fw-30" value="&lt;div style=&quot;font-size: 1px&quot;&gt;&lt;/div&gt;" style="text;vsdxID=67;rotation=270.09;fillColor=none;gradientColor=none;strokeColor=none;flipH=1;flipV=1;points=[];labelBackgroundColor=none;rounded=0;html=1;whiteSpace=wrap;verticalAlign=middle;align=center;;html=1;" vertex="1" parent="KkYNQrah5GLoVrPr49fw-29">
          <mxGeometry x="-1" y="1" width="40.8" as="geometry" />
        </mxCell>
        <UserObject label="&lt;div style=&quot;font-size: 1px&quot;&gt;&lt;p style=&quot;text-align:left;margin-left:0;margin-right:0;margin-top:0px;margin-bottom:0px;text-indent:0;vertical-align:middle;direction:ltr;&quot;&gt;&lt;font style=&quot;font-size:16.93px;font-family:Calibri;color:#000000;direction:ltr;letter-spacing:0px;line-height:120%;opacity:1&quot;&gt;pair&amp;lt;string, int&amp;gt; a = pair&amp;lt;char*p , int&amp;gt; b&lt;br/&gt;&lt;/font&gt;&lt;/p&gt;&lt;p style=&quot;text-align:left;margin-left:0;margin-right:0;margin-top:0px;margin-bottom:0px;text-indent:0;vertical-align:middle;direction:ltr;&quot;&gt;&lt;font style=&quot;font-size:16.93px;font-family:Calibri;color:#000000;direction:ltr;letter-spacing:0px;line-height:120%;opacity:1&quot;&gt;//&lt;/font&gt;&lt;font style=&quot;font-size:16.93px;font-family:Calibri;color:#000000;direction:ltr;letter-spacing:0px;line-height:120%;opacity:1&quot;&gt;&lt;b&gt;the third step&lt;/b&gt;&lt;/font&gt;&lt;font style=&quot;font-size:16.93px;font-family:Calibri;color:#000000;direction:ltr;letter-spacing:0px;line-height:120%;opacity:1&quot;&gt;, invoke pair copy ctor&lt;br/&gt;&lt;/font&gt;&lt;/p&gt;&lt;p style=&quot;text-align:left;margin-left:0;margin-right:0;margin-top:0px;margin-bottom:0px;text-indent:0;vertical-align:middle;direction:ltr;&quot;&gt;&lt;font style=&quot;font-size:16.93px;font-family:Calibri;color:#000000;direction:ltr;letter-spacing:0px;line-height:120%;opacity:1&quot;&gt;//invoke pair copy constructor, (template)&lt;br/&gt;&lt;/font&gt;&lt;/p&gt;&lt;p style=&quot;text-align:left;margin-left:0;margin-right:0;margin-top:0px;margin-bottom:0px;text-indent:0;vertical-align:middle;direction:ltr;&quot;&gt;&lt;font style=&quot;font-size:16.93px;font-family:Calibri;color:#000000;direction:ltr;letter-spacing:0px;line-height:120%;opacity:1&quot;&gt;//C++ support build string from char*p &lt;br/&gt;&lt;/font&gt;&lt;/p&gt;&lt;/div&gt;" tags="Background" id="KkYNQrah5GLoVrPr49fw-33">
          <mxCell style="verticalAlign=middle;align=left;overflow=width;vsdxID=69;fillColor=none;gradientColor=none;shape=stencil(nZBLDoAgDERP0z3SIyjew0SURgSD+Lu9kMZoXLhwN9O+tukAlrNpJg1SzDH4QW/URgNYgZTkjA4UkwJUgGXng+6DX1zLfmoymdXo17xh5zmRJ6Q42BWCfc2oJfdAr+Yv+AP9Cb7OJ3H/2JG1HNGz/84klThPVCc=);strokeColor=#000000;points=[[0.5,0,0],[0.5,1,0],[0,0.5,0],[0.5,0.5,0],[1,0.5,0]];labelBackgroundColor=none;rounded=0;html=1;whiteSpace=wrap;" vertex="1" parent="1">
            <mxGeometry x="64" y="444" width="350" height="90" as="geometry" />
          </mxCell>
        </UserObject>
        <UserObject label="" tags="Background" id="KkYNQrah5GLoVrPr49fw-34">
          <mxCell style="vsdxID=70;rotation=90;fillColor=none;gradientColor=none;shape=stencil(zZLNDsIgEISfhqMNsErDudb3aFIqRISGUn/eXsjGWHuoqRe9zcB8JLsMgWrQTa8Ip0MM/qSupo2awJ5wbpxWwcSkCNQEqs4HdQx+dC36vsnJrM7+kl+4IUczwekdHaPoDxi1xk2iIAsGb/EN20leCLGKKbeiAPg18pz0a2BxVfOwXD3AfxKs/PDfiztK4lXDzliLLZ7ez2ubjrDyUD8A);strokeColor=#233862;flipH=1;flipV=1;points=[];labelBackgroundColor=none;rounded=0;html=1;whiteSpace=wrap;" vertex="1" parent="1">
            <mxGeometry x="218" y="423" width="43" height="1" as="geometry" />
          </mxCell>
        </UserObject>
        <mxCell id="KkYNQrah5GLoVrPr49fw-35" value="&lt;div style=&quot;font-size: 1px&quot;&gt;&lt;/div&gt;" style="text;vsdxID=70;rotation=270.09;fillColor=none;gradientColor=none;strokeColor=none;flipH=1;flipV=1;points=[];labelBackgroundColor=none;rounded=0;html=1;whiteSpace=wrap;verticalAlign=middle;align=center;;html=1;" vertex="1" parent="KkYNQrah5GLoVrPr49fw-34">
          <mxGeometry x="-1" y="1" width="43.28" as="geometry" />
        </mxCell>
        <UserObject label="&lt;div style=&quot;font-size: 1px&quot;&gt;&lt;p style=&quot;text-align:center;margin-left:0;margin-right:0;margin-top:0px;margin-bottom:0px;text-indent:0;vertical-align:middle;direction:ltr;&quot;&gt;&lt;font style=&quot;font-size:16.93px;font-family:Calibri;color:#000000;direction:ltr;letter-spacing:0px;line-height:120%;opacity:1&quot;&gt;char b [] = {&amp;prime;a&amp;prime;, &amp;prime;b&amp;prime;};&lt;br/&gt;&lt;/font&gt;&lt;/p&gt;&lt;p style=&quot;text-align:center;margin-left:0;margin-right:0;margin-top:0px;margin-bottom:0px;text-indent:0;vertical-align:middle;direction:ltr;&quot;&gt;&lt;font style=&quot;font-size:16.93px;font-family:Calibri;color:#000000;direction:ltr;letter-spacing:0px;line-height:120%;opacity:1&quot;&gt;pair&amp;lt;string, int&amp;gt; a = make_pair(b, 5);&lt;br/&gt;&lt;/font&gt;&lt;/p&gt;&lt;/div&gt;" tags="Background" id="KkYNQrah5GLoVrPr49fw-36">
          <mxCell style="verticalAlign=middle;align=center;overflow=width;vsdxID=71;fillColor=none;gradientColor=none;shape=stencil(nZBLDoAgDERP0z3SIyjew0SURgSD+Lu9kMZoXLhwN9O+tukAlrNpJg1SzDH4QW/URgNYgZTkjA4UkwJUgGXng+6DX1zLfmoymdXo17xh5zmRJ6Q42BWCfc2oJfdAr+Yv+AP9Cb7OJ3H/2JG1HNGz/84klThPVCc=);strokeColor=#000000;points=[[0.5,0,0],[0.5,1,0],[0,0.5,0],[0.5,0.5,0],[1,0.5,0]];labelBackgroundColor=none;rounded=0;html=1;whiteSpace=wrap;" vertex="1" parent="1">
            <mxGeometry x="65" y="66" width="350" height="59" as="geometry" />
          </mxCell>
        </UserObject>
        <mxCell id="KkYNQrah5GLoVrPr49fw-38" value="" style="shape=flexArrow;endArrow=classic;html=1;rounded=0;exitX=0.5;exitY=1;exitDx=0;exitDy=0;exitPerimeter=0;" edge="1" parent="1" source="KkYNQrah5GLoVrPr49fw-27" target="KkYNQrah5GLoVrPr49fw-28">
          <mxGeometry width="50" height="50" relative="1" as="geometry">
            <mxPoint x="230" y="270" as="sourcePoint" />
            <mxPoint x="280" y="220" as="targetPoint" />
          </mxGeometry>
        </mxCell>
        <mxCell id="KkYNQrah5GLoVrPr49fw-39" value="" style="endArrow=classic;html=1;rounded=0;entryX=1;entryY=0.5;entryDx=0;entryDy=0;entryPerimeter=0;" edge="1" parent="1" source="KkYNQrah5GLoVrPr49fw-3" target="KkYNQrah5GLoVrPr49fw-1">
          <mxGeometry width="50" height="50" relative="1" as="geometry">
            <mxPoint x="1070" y="110" as="sourcePoint" />
            <mxPoint x="1120" y="60" as="targetPoint" />
          </mxGeometry>
        </mxCell>
        <mxCell id="KkYNQrah5GLoVrPr49fw-40" value="" style="endArrow=classic;html=1;rounded=0;entryX=1;entryY=0.5;entryDx=0;entryDy=0;entryPerimeter=0;exitX=0;exitY=0.5;exitDx=0;exitDy=0;exitPerimeter=0;" edge="1" parent="1" source="KkYNQrah5GLoVrPr49fw-3">
          <mxGeometry width="50" height="50" relative="1" as="geometry">
            <mxPoint x="941" y="480.5" as="sourcePoint" />
            <mxPoint x="884" y="469.5" as="targetPoint" />
          </mxGeometry>
        </mxCell>
        <mxCell id="KkYNQrah5GLoVrPr49fw-41" value="" style="endArrow=classic;html=1;rounded=0;entryX=0.995;entryY=0.542;entryDx=0;entryDy=0;entryPerimeter=0;" edge="1" parent="1" target="KkYNQrah5GLoVrPr49fw-2">
          <mxGeometry width="50" height="50" relative="1" as="geometry">
            <mxPoint x="1009" y="302.5" as="sourcePoint" />
            <mxPoint x="890" y="480" as="targetPoint" />
          </mxGeometry>
        </mxCell>
        <mxCell id="KkYNQrah5GLoVrPr49fw-42" value="" style="endArrow=classic;html=1;rounded=0;entryX=1.006;entryY=0.535;entryDx=0;entryDy=0;entryPerimeter=0;exitX=0;exitY=0.5;exitDx=0;exitDy=0;exitPerimeter=0;" edge="1" parent="1" source="KkYNQrah5GLoVrPr49fw-4" target="KkYNQrah5GLoVrPr49fw-1">
          <mxGeometry width="50" height="50" relative="1" as="geometry">
            <mxPoint x="1019" y="219" as="sourcePoint" />
            <mxPoint x="894" y="479.5" as="targetPoint" />
          </mxGeometry>
        </mxCell>
        <mxCell id="KkYNQrah5GLoVrPr49fw-43" value="" style="endArrow=classic;html=1;rounded=0;entryX=1.003;entryY=0.605;entryDx=0;entryDy=0;entryPerimeter=0;exitX=0;exitY=0.5;exitDx=0;exitDy=0;exitPerimeter=0;" edge="1" parent="1" source="KkYNQrah5GLoVrPr49fw-5" target="KkYNQrah5GLoVrPr49fw-1">
          <mxGeometry width="50" height="50" relative="1" as="geometry">
            <mxPoint x="1019" y="309" as="sourcePoint" />
            <mxPoint x="965" y="204" as="targetPoint" />
          </mxGeometry>
        </mxCell>
        <mxCell id="KkYNQrah5GLoVrPr49fw-44" value="" style="endArrow=classic;html=1;rounded=0;entryX=0.999;entryY=0.669;entryDx=0;entryDy=0;entryPerimeter=0;exitX=0.014;exitY=0.419;exitDx=0;exitDy=0;exitPerimeter=0;" edge="1" parent="1" source="KkYNQrah5GLoVrPr49fw-6" target="KkYNQrah5GLoVrPr49fw-1">
          <mxGeometry width="50" height="50" relative="1" as="geometry">
            <mxPoint x="1029" y="319" as="sourcePoint" />
            <mxPoint x="975" y="214" as="targetPoint" />
          </mxGeometry>
        </mxCell>
        <mxCell id="KkYNQrah5GLoVrPr49fw-45" value="" style="endArrow=classic;html=1;rounded=0;exitX=0;exitY=0.5;exitDx=0;exitDy=0;exitPerimeter=0;entryX=1.003;entryY=0.556;entryDx=0;entryDy=0;entryPerimeter=0;" edge="1" parent="1" source="KkYNQrah5GLoVrPr49fw-5" target="KkYNQrah5GLoVrPr49fw-2">
          <mxGeometry width="50" height="50" relative="1" as="geometry">
            <mxPoint x="1039" y="329" as="sourcePoint" />
            <mxPoint x="890" y="460" as="targetPoint" />
          </mxGeometry>
        </mxCell>
        <mxCell id="KkYNQrah5GLoVrPr49fw-46" value="" style="endArrow=classic;html=1;rounded=0;exitX=0;exitY=0.5;exitDx=0;exitDy=0;exitPerimeter=0;" edge="1" parent="1" source="KkYNQrah5GLoVrPr49fw-6">
          <mxGeometry width="50" height="50" relative="1" as="geometry">
            <mxPoint x="1049" y="339" as="sourcePoint" />
            <mxPoint x="880" y="470" as="targetPoint" />
          </mxGeometry>
        </mxCell>
      </root>
    </mxGraphModel>
  </diagram>
</mxfile>
